<?xml version="1.0" encoding="UTF-8"?>
<svg id="_レイヤー_1" data-name="レイヤー_1" xmlns="http://www.w3.org/2000/svg" version="1.1" viewBox="0 0 123 99">
  <!-- Generator: Adobe Illustrator 30.1.0, SVG Export Plug-In . SVG Version: 2.1.1 Build 136)  -->
  <defs>
    <style>
      .st0 {
        fill: #2f8ce2;
      }
    </style>
  </defs>
  <g>
    <path class="st0" d="M61.5,93.35c-.94,0-1.7-.76-1.7-1.7v-27.31c0-.94.76-1.7,1.7-1.7s1.7.76,1.7,1.7v27.31c0,.94-.76,1.7-1.7,1.7Z"/>
    <path class="st0" d="M67.15,99c-2.27,0-4.3-1.03-5.65-2.65-1.35,1.62-3.38,2.65-5.65,2.65-4.05,0-7.35-3.3-7.35-7.35v-30.49c-.67.35-1.41.58-2.18.65-1.74.16-3.48-.41-4.77-1.58-1.29-1.17-2.03-2.84-2.03-4.58v-23.69c0-5.89,4.79-10.68,10.68-10.68h22.59c5.89,0,10.68,4.79,10.68,10.68v23.69c0,1.74-.74,3.41-2.03,4.58-1.29,1.17-3.02,1.75-4.77,1.58-.78-.07-1.52-.3-2.18-.66v30.49c0,4.05-3.3,7.35-7.35,7.35ZM61.5,89.95c.94,0,1.7.76,1.7,1.7,0,2.18,1.77,3.95,3.95,3.95s3.95-1.77,3.95-3.95v-36.18c0-.94.76-1.7,1.7-1.7h0c.94,0,1.7.76,1.7,1.7,0,1.53,1.11,2.82,2.51,2.96.82.08,1.57-.18,2.15-.71.59-.54.91-1.27.91-2.06v-23.69c0-4.01-3.26-7.28-7.28-7.28h-22.59c-4.01,0-7.28,3.26-7.28,7.28v23.69c0,.8.32,1.53.91,2.06.59.53,1.35.79,2.15.71,1.41-.13,2.51-1.44,2.51-2.97,0-.94.76-1.7,1.7-1.7s1.7.76,1.7,1.7v36.19c0,2.18,1.77,3.95,3.95,3.95s3.95-1.77,3.95-3.95c0-.94.76-1.7,1.7-1.7Z"/>
    <path class="st0" d="M72.79,24.68h-22.59c-.94,0-1.7-.76-1.7-1.7s.76-1.7,1.7-1.7h22.59c.94,0,1.7.76,1.7,1.7s-.76,1.7-1.7,1.7Z"/>
    <path class="st0" d="M50.21,57.16c-.94,0-1.7-.76-1.7-1.7v-16.27c0-.94.76-1.7,1.7-1.7s1.7.76,1.7,1.7v16.27c0,.94-.76,1.7-1.7,1.7Z"/>
    <path class="st0" d="M72.79,57.16c-.94,0-1.7-.76-1.7-1.7v-16.27c0-.94.76-1.7,1.7-1.7s1.7.76,1.7,1.7v16.27c0,.94-.76,1.7-1.7,1.7Z"/>
    <path class="st0" d="M61.5,18.57c-5.12,0-9.28-4.17-9.28-9.28S56.38,0,61.5,0s9.28,4.16,9.28,9.28-4.16,9.28-9.28,9.28ZM61.5,3.4c-3.24,0-5.88,2.64-5.88,5.88s2.64,5.88,5.88,5.88,5.88-2.64,5.88-5.88-2.64-5.88-5.88-5.88Z"/>
  </g>
  <g>
    <g>
      <g>
        <path class="st0" d="M13.02,53.26c-.43,0-.87-.17-1.2-.5l-7.81-7.82c-.66-.66-.66-1.74,0-2.41l7.81-7.82c.66-.66,1.74-.66,2.41,0,.66.66.66,1.74,0,2.41l-6.61,6.61,6.61,6.61c.66.66.66,1.74,0,2.41-.33.33-.77.5-1.2.5Z"/>
        <path class="st0" d="M27.08,45.44H5.2c-.94,0-1.7-.76-1.7-1.7s.76-1.7,1.7-1.7h21.88c.94,0,1.7.76,1.7,1.7s-.76,1.7-1.7,1.7Z"/>
      </g>
      <g>
        <path class="st0" d="M109.98,53.26c-.44,0-.87-.17-1.2-.5-.66-.66-.66-1.74,0-2.41l6.61-6.61-6.61-6.61c-.66-.66-.66-1.74,0-2.41.66-.66,1.74-.66,2.41,0l7.81,7.82c.66.66.66,1.74,0,2.41l-7.81,7.82c-.33.33-.77.5-1.2.5Z"/>
        <path class="st0" d="M117.8,45.44h-21.88c-.94,0-1.7-.76-1.7-1.7s.76-1.7,1.7-1.7h21.88c.94,0,1.7.76,1.7,1.7s-.76,1.7-1.7,1.7Z"/>
      </g>
    </g>
    <g>
      <g>
        <path class="st0" d="M21.69,16.68c-.94,0-1.7-.76-1.7-1.7V3.93c0-.94.76-1.7,1.7-1.7h11.05c.94,0,1.7.76,1.7,1.7s-.76,1.7-1.7,1.7h-9.35v9.35c0,.94-.76,1.7-1.7,1.7Z"/>
        <path class="st0" d="M37.16,21.1c-.43,0-.87-.17-1.2-.5l-15.47-15.47c-.66-.66-.66-1.74,0-2.41.66-.66,1.74-.66,2.41,0l15.47,15.47c.66.66.66,1.74,0,2.41-.33.33-.77.5-1.2.5Z"/>
      </g>
      <g>
        <path class="st0" d="M101.31,85.25h-11.05c-.94,0-1.7-.76-1.7-1.7s.76-1.7,1.7-1.7h9.35v-9.35c0-.94.76-1.7,1.7-1.7s1.7.76,1.7,1.7v11.05c0,.94-.76,1.7-1.7,1.7Z"/>
        <path class="st0" d="M101.31,85.25c-.44,0-.87-.17-1.2-.5l-15.47-15.47c-.66-.66-.66-1.74,0-2.41.66-.66,1.74-.66,2.4,0l15.47,15.47c.66.66.66,1.74,0,2.41-.33.33-.77.5-1.2.5Z"/>
      </g>
    </g>
    <g>
      <g>
        <path class="st0" d="M32.74,85.25h-11.05c-.94,0-1.7-.76-1.7-1.7v-11.05c0-.94.76-1.7,1.7-1.7s1.7.76,1.7,1.7v9.35h9.35c.94,0,1.7.76,1.7,1.7s-.76,1.7-1.7,1.7Z"/>
        <path class="st0" d="M21.69,85.25c-.43,0-.87-.17-1.2-.5-.66-.66-.66-1.74,0-2.41l15.47-15.47c.66-.66,1.74-.66,2.4,0,.66.66.66,1.74,0,2.41l-15.47,15.47c-.33.33-.77.5-1.2.5Z"/>
      </g>
      <g>
        <path class="st0" d="M101.31,16.68c-.94,0-1.7-.76-1.7-1.7V5.63h-9.35c-.94,0-1.7-.76-1.7-1.7s.76-1.7,1.7-1.7h11.05c.94,0,1.7.76,1.7,1.7v11.05c0,.94-.76,1.7-1.7,1.7Z"/>
        <path class="st0" d="M85.84,21.1c-.44,0-.87-.17-1.2-.5-.66-.66-.66-1.74,0-2.41l15.47-15.47c.66-.66,1.74-.66,2.41,0,.66.66.66,1.74,0,2.41l-15.47,15.47c-.33.33-.77.5-1.2.5Z"/>
      </g>
    </g>
  </g>
</svg>