<?xml version="1.0" encoding="UTF-8"?>
<svg id="_レイヤー_1" data-name="レイヤー_1" xmlns="http://www.w3.org/2000/svg" version="1.1" viewBox="0 0 123 99">
  <!-- Generator: Adobe Illustrator 30.1.0, SVG Export Plug-In . SVG Version: 2.1.1 Build 136)  -->
  <defs>
    <style>
      .st0 {
        fill: #2f8ce2;
      }
    </style>
  </defs>
  <g>
    <path class="st0" d="M114.91,99H8.09c-4.32,0-7.84-3.51-7.84-7.83V7.83C.25,3.51,3.77,0,8.09,0h106.82c4.32,0,7.84,3.51,7.84,7.83v83.35c0,4.32-3.52,7.83-7.84,7.83ZM8.09,3.63c-2.32,0-4.21,1.89-4.21,4.2v83.35c0,2.32,1.89,4.2,4.21,4.2h106.82c2.32,0,4.21-1.88,4.21-4.2V7.83c0-2.32-1.89-4.2-4.21-4.2H8.09Z"/>
    <path class="st0" d="M120.93,22.07H2.07c-1,0-1.82-.81-1.82-1.81V7.83C.25,3.51,3.77,0,8.09,0h106.82c4.32,0,7.84,3.51,7.84,7.83v12.43c0,1-.81,1.81-1.82,1.81ZM3.88,18.44h115.24V7.83c0-2.32-1.89-4.2-4.21-4.2H8.09c-2.32,0-4.21,1.88-4.21,4.2v10.61Z"/>
    <g>
      <path class="st0" d="M11.28,12.85c-.48,0-.95-.19-1.28-.53-.34-.34-.53-.81-.53-1.28s.19-.94.53-1.28c.68-.68,1.89-.67,2.57,0,.34.34.53.81.53,1.28s-.19.94-.53,1.28c-.34.34-.81.53-1.28.53Z"/>
      <path class="st0" d="M25.94,12.85c-.48,0-.94-.19-1.28-.53-.34-.34-.53-.81-.53-1.28s.19-.94.53-1.28c.68-.68,1.89-.67,2.57,0,.34.34.53.81.53,1.28s-.19.94-.53,1.28c-.34.34-.81.53-1.29.53Z"/>
      <path class="st0" d="M18.61,12.85c-.48,0-.95-.19-1.28-.53-.34-.34-.53-.81-.53-1.28s.19-.94.53-1.28c.68-.67,1.89-.68,2.57,0,.34.34.53.81.53,1.28s-.19.94-.53,1.28c-.34.34-.81.53-1.28.53Z"/>
    </g>
  </g>
  <g>
    <g>
      <path class="st0" d="M42.04,75.38c-.42,0-.85-.02-1.28-.07-3.12-.33-5.93-1.86-7.9-4.31-1.97-2.44-2.87-5.5-2.54-8.62.34-3.12,1.87-5.92,4.31-7.89,5.05-4.06,12.46-3.27,16.53,1.77h0c4.07,5.04,3.27,12.45-1.78,16.51-2.11,1.7-4.68,2.6-7.35,2.6ZM42.01,55.53c-1.79,0-3.59.59-5.09,1.79-1.69,1.36-2.75,3.3-2.98,5.45-.23,2.15.39,4.27,1.75,5.96,1.36,1.69,3.3,2.74,5.46,2.98,2.16.23,4.28-.39,5.97-1.75,3.49-2.81,4.04-7.93,1.23-11.41h0c-1.6-1.99-3.96-3.02-6.33-3.02Z"/>
      <path class="st0" d="M41.22,88.21c-.16,0-.32,0-.49-.03l-2.67-.29c-1.21-.13-2.29-.72-3.06-1.67-.76-.95-1.11-2.13-.98-3.34l.16-1.51c-1-.44-1.96-.96-2.87-1.56l-1.19.95c-.95.76-2.13,1.11-3.34.98-1.21-.13-2.29-.72-3.06-1.67l-1.69-2.09c-1.57-1.95-1.27-4.82.69-6.39l1.19-.95c-.4-1.02-.7-2.06-.92-3.13l-1.51-.16c-2.49-.27-4.31-2.51-4.04-5.01l.29-2.67c.27-2.49,2.52-4.3,5.01-4.03l1.51.16c.44-1,.96-1.95,1.57-2.86l-.96-1.18c-1.57-1.95-1.27-4.82.69-6.39l2.09-1.69c.95-.76,2.13-1.11,3.34-.98,1.21.13,2.29.72,3.06,1.67l.96,1.18c1.02-.4,2.07-.7,3.14-.92l.16-1.51c.27-2.49,2.52-4.3,5.01-4.03l2.67.29c2.5.27,4.31,2.51,4.04,5.01l-.16,1.51c1,.44,1.96.96,2.87,1.56l1.19-.95c.95-.76,2.13-1.11,3.34-.98,1.21.13,2.29.72,3.06,1.67l1.69,2.09c1.57,1.95,1.27,4.82-.69,6.39l-1.19.95c.4,1.02.7,2.06.92,3.13l1.51.16c1.21.13,2.29.72,3.06,1.67.76.95,1.11,2.13.98,3.34l-.29,2.67c-.13,1.21-.72,2.29-1.67,3.05-.95.76-2.13,1.11-3.34.98l-1.51-.16c-.44,1-.96,1.95-1.57,2.86l.96,1.18c.76.95,1.11,2.13.98,3.34-.13,1.21-.72,2.29-1.67,3.05l-2.09,1.68c-.95.76-2.13,1.11-3.34.98-1.21-.13-2.29-.72-3.06-1.67l-.96-1.18c-1.02.4-2.07.7-3.14.92l-.16,1.51c-.25,2.33-2.23,4.06-4.52,4.06ZM31.25,75.73c.39,0,.78.13,1.11.38,1.33,1.03,2.8,1.83,4.38,2.39.79.28,1.29,1.07,1.2,1.9l-.31,2.88c-.04.33.11.56.2.68.09.11.29.3.62.34l2.67.29c.51.06.96-.31,1.01-.82l.31-2.88c.09-.83.74-1.5,1.57-1.6,1.66-.21,3.27-.68,4.79-1.41.76-.36,1.67-.15,2.2.5l1.82,2.26c.21.26.48.32.62.34.14.02.42,0,.68-.2l2.09-1.69c.26-.21.32-.48.34-.62.02-.14,0-.42-.2-.68l-1.82-2.26c-.53-.65-.54-1.58-.02-2.25,1.03-1.33,1.83-2.8,2.39-4.38.3-.84,1.15-1.32,2-1.19l2.78.3c.33.03.57-.11.68-.2.11-.09.3-.29.34-.62l.29-2.67c.04-.33-.11-.56-.2-.68-.09-.11-.29-.3-.62-.34l-2.88-.31c-.84-.09-1.5-.74-1.61-1.57-.21-1.66-.68-3.27-1.41-4.78-.36-.76-.16-1.66.5-2.19l2.26-1.82c.4-.32.46-.9.14-1.29l-1.69-2.09c-.21-.26-.48-.32-.62-.34-.14-.02-.42-.01-.68.2h0l-2.26,1.82c-.65.53-1.59.54-2.25.02-1.33-1.03-2.8-1.83-4.38-2.39-.79-.28-1.29-1.07-1.2-1.9l.31-2.88c.05-.5-.31-.96-.82-1.01l-2.67-.29c-.5-.06-.96.31-1.01.82l-.31,2.88c-.09.84-.74,1.5-1.58,1.61-1.66.21-3.27.68-4.79,1.41-.76.36-1.67.16-2.2-.5l-1.82-2.26c-.21-.26-.48-.32-.62-.34-.14-.02-.42,0-.68.2l-2.09,1.69c-.4.32-.46.9-.14,1.29l1.82,2.26c.53.65.54,1.58.02,2.25-1.03,1.33-1.83,2.8-2.39,4.37-.28.79-1.07,1.29-1.9,1.2l-2.88-.31c-.51-.05-.96.31-1.01.82l-.29,2.67c-.04.33.11.56.2.68.09.11.29.3.62.34l2.88.31c.84.09,1.5.74,1.61,1.57.21,1.66.68,3.27,1.41,4.78.36.76.16,1.67-.5,2.19l-2.26,1.82c-.4.32-.46.9-.14,1.29l1.69,2.09c.21.26.48.32.62.34.14.02.42,0,.68-.2l2.26-1.82c.33-.27.74-.4,1.14-.4ZM55.05,47.92h.01-.01Z"/>
    </g>
    <g>
      <path class="st0" d="M84.94,60.62c-1.59,0-3.16-.39-4.6-1.16-4.76-2.54-6.56-8.48-4.02-13.23,2.54-4.75,8.49-6.56,13.25-4.01h0c4.76,2.54,6.56,8.48,4.02,13.23-1.23,2.3-3.29,3.99-5.79,4.75-.94.28-1.9.43-2.85.43ZM84.97,44.68c-2.2,0-4.33,1.18-5.44,3.25-1.6,2.99-.47,6.73,2.53,8.33,1.45.77,3.12.94,4.69.46,1.57-.48,2.87-1.54,3.65-2.99,1.6-2.99.47-6.73-2.53-8.33h0c-.92-.49-1.91-.73-2.89-.73Z"/>
      <path class="st0" d="M88.78,71.44c-1.77,0-3.41-1.15-3.95-2.92l-.31-1.03c-.8-.02-1.59-.1-2.38-.24l-.51.95c-1.07,2-3.58,2.76-5.58,1.69l-2-1.07c-2.01-1.07-2.77-3.57-1.69-5.58l.51-.95c-.55-.58-1.06-1.2-1.52-1.85l-1.03.31c-2.18.66-4.48-.57-5.14-2.75l-.66-2.17c-.66-2.17.57-4.48,2.75-5.14l1.03-.31c.02-.8.1-1.59.24-2.38l-.95-.51c-.97-.52-1.68-1.38-2-2.44-.32-1.05-.21-2.17.31-3.14l1.07-2c.52-.97,1.39-1.68,2.44-2,1.05-.32,2.17-.21,3.14.31l.95.51c.58-.55,1.2-1.06,1.85-1.52l-.31-1.03c-.66-2.17.57-4.48,2.75-5.14l2.17-.66c2.18-.66,4.48.57,5.14,2.75l.31,1.03c.8.02,1.59.1,2.38.23l.51-.95h0c.52-.97,1.39-1.68,2.44-2,1.06-.32,2.17-.21,3.14.31l2,1.07c.97.52,1.68,1.38,2,2.44.32,1.05.21,2.17-.31,3.14l-.51.95c.55.58,1.06,1.2,1.52,1.85l1.03-.31c2.18-.66,4.49.57,5.15,2.75l.66,2.17c.66,2.17-.57,4.48-2.75,5.14l-1.03.31c-.02.8-.1,1.59-.24,2.38l.95.51c2.01,1.07,2.77,3.57,1.69,5.58l-1.07,2c-1.07,2-3.58,2.76-5.58,1.69l-.95-.51c-.58.55-1.2,1.06-1.85,1.52l.31,1.03c.32,1.05.21,2.17-.31,3.14-.52.97-1.39,1.68-2.44,2l-2.17.66c-.4.12-.8.18-1.19.18ZM85.86,63.84c.8,0,1.5.52,1.74,1.29l.71,2.34c.08.26.36.41.62.33l2.17-.66c.16-.05.25-.16.29-.24.04-.08.09-.21.04-.38l-.71-2.34c-.24-.8.1-1.67.82-2.09,1.19-.69,2.27-1.57,3.19-2.61.56-.63,1.47-.79,2.22-.4l2.16,1.15c.24.13.54.04.67-.2l1.07-2c.13-.24.04-.54-.2-.67l-2.16-1.15c-.74-.4-1.11-1.25-.9-2.06.35-1.34.49-2.72.41-4.1-.05-.84.48-1.6,1.29-1.85l2.34-.71c.26-.08.41-.36.33-.62l-.66-2.17c-.08-.26-.36-.41-.62-.33l-2.34.71c-.8.24-1.67-.1-2.1-.82-.69-1.19-1.58-2.26-2.62-3.18-.63-.56-.79-1.47-.4-2.21l1.15-2.16c.08-.15.06-.29.04-.38-.03-.09-.09-.21-.24-.29l-2-1.07c-.15-.08-.29-.06-.38-.04-.09.03-.21.09-.29.24l-1.16,2.16c-.4.74-1.25,1.11-2.06.9-1.34-.35-2.72-.49-4.1-.4-.84.05-1.6-.48-1.85-1.28l-.71-2.34c-.08-.26-.36-.41-.62-.33l-2.17.66c-.26.08-.41.36-.33.62l.71,2.34c.24.8-.1,1.67-.82,2.09-1.19.7-2.27,1.57-3.19,2.61-.56.63-1.47.79-2.22.4l-2.16-1.15c-.15-.08-.29-.06-.38-.04-.09.03-.21.09-.29.24l-1.07,2c-.08.15-.06.29-.04.38.03.09.09.21.24.29l2.16,1.15c.74.4,1.11,1.25.9,2.06-.35,1.34-.49,2.72-.41,4.1.05.84-.48,1.6-1.29,1.85l-2.34.71c-.26.08-.41.36-.33.62l.66,2.17c.08.26.36.41.62.33l2.34-.71c.81-.24,1.67.1,2.1.82.7,1.19,1.58,2.26,2.62,3.18.63.56.79,1.47.4,2.21l-1.15,2.16c-.13.24-.04.54.2.67l2,1.07c.24.13.54.04.67-.2l1.15-2.16c.4-.74,1.25-1.11,2.06-.9,1.34.35,2.72.49,4.1.4.04,0,.08,0,.11,0Z"/>
    </g>
  </g>
</svg>