<?xml version="1.0" encoding="UTF-8"?>
<svg id="_レイヤー_1" data-name="レイヤー_1" xmlns="http://www.w3.org/2000/svg" version="1.1" viewBox="0 0 123 99">
  <!-- Generator: Adobe Illustrator 30.1.0, SVG Export Plug-In . SVG Version: 2.1.1 Build 136)  -->
  <defs>
    <style>
      .st0 {
        fill: #2f8ce2;
      }
    </style>
  </defs>
  <path class="st0" d="M61.5,18.42c-5.08,0-9.21-4.13-9.21-9.21S56.43,0,61.5,0s9.2,4.13,9.2,9.21-4.13,9.21-9.2,9.21ZM61.5,3.24c-3.29,0-5.97,2.68-5.97,5.97s2.68,5.97,5.97,5.97,5.96-2.68,5.96-5.97-2.68-5.97-5.96-5.97Z"/>
  <path class="st0" d="M36.74,99c-2.08,0-3.95-.94-5.2-2.41-1.25,1.48-3.12,2.41-5.2,2.41-3.76,0-6.82-3.06-6.82-6.83v-28.01c-.6.31-1.26.5-1.95.57-1.63.15-3.23-.38-4.43-1.47-1.2-1.09-1.88-2.64-1.88-4.26v-21.83c0-5.46,4.44-9.89,9.89-9.89h20.62c.53,0,1.02.26,1.32.69.3.43.38.98.2,1.48-.29.81-.44,1.64-.44,2.47v23.71c0,.53.15,1.04.46,1.52.16.26.25.56.25.86v.75s0,.05,0,.07v33.35c0,3.76-3.06,6.83-6.82,6.83ZM33.16,92.17c0,1.98,1.61,3.58,3.58,3.58s3.58-1.61,3.58-3.58v-33.34s0-.05,0-.07c0-.1,0-.21,0-.31-.47-.88-.71-1.85-.71-2.83v-23.71c0-.47.03-.93.09-1.4h-18.56c-3.67,0-6.65,2.98-6.65,6.65v21.83c0,.72.29,1.38.82,1.86.53.48,1.22.71,1.94.64,1.27-.12,2.26-1.3,2.26-2.68v-14.99c0-.9.73-1.62,1.62-1.62s1.62.73,1.62,1.62v48.34c0,1.98,1.61,3.58,3.58,3.58s3.58-1.61,3.58-3.58v-25.17c0-.9.73-1.62,1.62-1.62s1.62.73,1.62,1.62v25.17Z"/>
  <path class="st0" d="M31.54,24.88c-4.74,0-8.6-3.86-8.6-8.61s3.86-8.61,8.6-8.61,8.6,3.86,8.6,8.61-3.86,8.61-8.6,8.61ZM31.54,10.9c-2.96,0-5.36,2.41-5.36,5.37s2.41,5.37,5.36,5.37,5.36-2.41,5.36-5.37-2.41-5.37-5.36-5.37Z"/>
  <path class="st0" d="M96.66,99c-2.08,0-3.95-.94-5.2-2.41-1.25,1.48-3.12,2.41-5.2,2.41-3.76,0-6.82-3.06-6.82-6.83v-33.35c0-.16.02-.32.07-.48.34-1.11.64-2.37.64-2.71v-23.71c0-.83-.15-1.66-.44-2.47-.18-.5-.1-1.05.2-1.48.3-.43.8-.69,1.32-.69h20.62c5.45,0,9.89,4.44,9.89,9.89v21.83c0,1.62-.69,3.17-1.88,4.26-1.2,1.09-2.82,1.62-4.43,1.47-.69-.07-1.35-.26-1.95-.57v28.01c0,3.76-3.06,6.83-6.82,6.83ZM93.08,92.17c0,1.98,1.61,3.58,3.58,3.58s3.58-1.61,3.58-3.58v-33.22s0-.09,0-.13v-14.99c0-.9.73-1.62,1.62-1.62s1.62.73,1.62,1.62v14.87s0,.08,0,.13c0,1.38,1,2.55,2.26,2.67.73.07,1.41-.16,1.94-.64.53-.48.82-1.14.82-1.86v-21.83c0-3.67-2.98-6.65-6.65-6.65h-18.56c.06.46.1.93.1,1.4v23.71c0,.94-.48,2.65-.72,3.44v33.11c0,1.98,1.61,3.58,3.58,3.58s3.58-1.61,3.58-3.58v-25.17c0-.9.73-1.62,1.62-1.62s1.62.73,1.62,1.62v25.17Z"/>
  <path class="st0" d="M67.15,98.93c-2.28,0-4.31-1.05-5.65-2.7-1.33,1.65-3.37,2.7-5.65,2.7-4.01,0-7.27-3.26-7.27-7.27v-30.66c-.69.38-1.46.63-2.28.71-2.31.22-4.5-.87-5.75-2.83-.63-.99-.96-2.12-.96-3.25v-23.71c0-1.2.21-2.4.63-3.56,1.5-4.21,5.51-7.04,9.97-7.04h22.59c4.46,0,8.47,2.83,9.97,7.04.41,1.16.63,2.36.63,3.56v23.71c0,1.14-.34,2.27-.97,3.27-1.24,1.96-3.44,3.04-5.74,2.82-.81-.08-1.58-.33-2.27-.71v30.66c0,4.01-3.26,7.27-7.27,7.27ZM61.5,90.04c.89,0,1.62.73,1.62,1.62,0,2.22,1.81,4.03,4.03,4.03s4.03-1.81,4.03-4.03v-36.21c0-.89.72-1.62,1.62-1.62h0c.89,0,1.62.72,1.62,1.62,0,1.57,1.14,2.9,2.58,3.04,1.06.1,2.11-.41,2.7-1.33.31-.48.46-1,.46-1.53v-23.71c0-.83-.15-1.66-.44-2.47t0,0c-1.04-2.93-3.83-4.89-6.92-4.89h-22.59c-3.1,0-5.88,1.97-6.92,4.89-.29.81-.44,1.64-.44,2.47v23.71c0,.53.15,1.04.46,1.52.59.93,1.62,1.44,2.7,1.34,1.45-.14,2.58-1.48,2.58-3.05,0-.9.73-1.62,1.62-1.62s1.62.73,1.62,1.62v36.23c0,2.22,1.81,4.03,4.03,4.03s4.03-1.81,4.03-4.03c0-.9.73-1.62,1.62-1.62Z"/>
  <path class="st0" d="M91.46,24.88c-4.74,0-8.6-3.86-8.6-8.61s3.86-8.61,8.6-8.61,8.6,3.86,8.6,8.61-3.86,8.61-8.6,8.61ZM91.46,10.9c-2.96,0-5.36,2.41-5.36,5.37s2.41,5.37,5.36,5.37,5.36-2.41,5.36-5.37-2.41-5.37-5.36-5.37Z"/>
  <path class="st0" d="M61.5,93.28c-.89,0-1.62-.73-1.62-1.62v-27.18c0-.9.73-1.62,1.62-1.62s1.62.73,1.62,1.62v27.18c0,.9-.73,1.62-1.62,1.62Z"/>
  <path class="st0" d="M50.21,57.05c-.89,0-1.62-.73-1.62-1.62v-18.49c0-.9.73-1.62,1.62-1.62s1.62.73,1.62,1.62v18.49c0,.9-.73,1.62-1.62,1.62Z"/>
  <path class="st0" d="M72.8,57.07c-.89,0-1.62-.73-1.62-1.62v-18.51c0-.9.73-1.62,1.62-1.62s1.62.73,1.62,1.62v18.51c0,.89-.73,1.62-1.62,1.62Z"/>
</svg>