<?xml version="1.0" encoding="UTF-8"?>
<svg id="_レイヤー_1" data-name="レイヤー_1" xmlns="http://www.w3.org/2000/svg" version="1.1" viewBox="0 0 123 99">
  <!-- Generator: Adobe Illustrator 30.1.0, SVG Export Plug-In . SVG Version: 2.1.1 Build 136)  -->
  <defs>
    <style>
      .st0 {
        fill: #2f8ce2;
      }
    </style>
  </defs>
  <g>
    <path class="st0" d="M102.81,99h-20.66c-.89,0-1.62-.73-1.62-1.62v-25.44c0-.9.73-1.62,1.62-1.62h20.66c.9,0,1.62.73,1.62,1.62v25.44c0,.9-.72,1.62-1.62,1.62ZM83.78,95.75h17.42v-22.19h-17.42v22.19Z"/>
    <path class="st0" d="M71.83,99h-20.66c-.9,0-1.62-.73-1.62-1.62v-44.08c0-.9.73-1.62,1.62-1.62h20.66c.9,0,1.62.73,1.62,1.62v44.08c0,.9-.73,1.62-1.62,1.62ZM52.79,95.75h17.42v-40.83h-17.42v40.83Z"/>
    <path class="st0" d="M40.84,99h-20.66c-.89,0-1.62-.73-1.62-1.62V33.11c0-.9.73-1.62,1.62-1.62h20.66c.89,0,1.62.73,1.62,1.62v64.27c0,.9-.73,1.62-1.62,1.62ZM21.81,95.75h17.42v-61.02h-17.42v61.02Z"/>
  </g>
  <path class="st0" d="M113.88,99H9.12c-.9,0-1.62-.73-1.62-1.62s.73-1.62,1.62-1.62h104.76c.89,0,1.62.73,1.62,1.62s-.73,1.62-1.62,1.62Z"/>
  <g>
    <path class="st0" d="M99.94,52.72c-.3,0-.6-.08-.87-.26L22.18,2.99c-.75-.48-.97-1.49-.49-2.24.48-.76,1.49-.98,2.24-.49l76.89,49.47c.75.48.97,1.49.49,2.24-.31.48-.83.75-1.37.75Z"/>
    <path class="st0" d="M85.53,55.82c-.75,0-1.42-.52-1.58-1.29-.18-.88.37-1.74,1.25-1.93l12.83-2.72-2.71-12.86c-.19-.88.38-1.74,1.25-1.92.88-.18,1.73.38,1.92,1.25l3.04,14.45c.19.88-.37,1.74-1.25,1.92l-14.41,3.05c-.11.02-.23.04-.34.04Z"/>
  </g>
</svg>