<?xml version="1.0" encoding="UTF-8"?>
<svg id="_レイヤー_1" data-name="レイヤー_1" xmlns="http://www.w3.org/2000/svg" version="1.1" viewBox="0 0 480 75.5">
  <!-- Generator: Adobe Illustrator 30.1.0, SVG Export Plug-In . SVG Version: 2.1.1 Build 136)  -->
  <defs>
    <style>
      .st0 {
        isolation: isolate;
      }

      .st1 {
        fill: #fff;
      }
    </style>
  </defs>
  <g id="TAKOASHI." class="st0">
    <g class="st0">
      <path class="st1" d="M26.6,14.29v59.94h-10.54V14.29H0V4.39h42.62v9.91h-16.02Z"/>
      <path class="st1" d="M89.27,57.27h-29.91l-7.78,16.96h-11.36L74.79,0l33.35,74.23h-11.54l-7.33-16.96ZM84.97,47.36l-10.36-23.75-10.86,23.75h21.22Z"/>
      <path class="st1" d="M127.41,32.25l27.19-27.87h14.07l-31.58,31.62,31.76,38.22h-14.12l-25.16-31.08-2.17,2.17v28.91h-10.54V4.39h10.54v27.87Z"/>
      <path class="st1" d="M170.8,38.99c0-9.83,3.6-18.28,10.81-25.33,7.18-7.06,15.81-10.59,25.88-10.59s18.49,3.56,25.61,10.68c7.15,7.12,10.72,15.67,10.72,25.65s-3.59,18.56-10.77,25.56c-7.21,7.03-15.91,10.54-26.11,10.54-9.02,0-17.12-3.12-24.3-9.36-7.9-6.91-11.85-15.95-11.85-27.14ZM181.43,39.13c0,7.72,2.59,14.07,7.78,19.04,5.16,4.98,11.11,7.46,17.87,7.46,7.33,0,13.51-2.53,18.55-7.6,5.04-5.13,7.56-11.37,7.56-18.73s-2.49-13.69-7.47-18.73c-4.95-5.07-11.07-7.6-18.37-7.6s-13.41,2.53-18.41,7.6c-5.01,5.01-7.51,11.19-7.51,18.55Z"/>
      <path class="st1" d="M294.59,57.27h-29.91l-7.78,16.96h-11.36L280.11,0l33.35,74.23h-11.54l-7.33-16.96ZM290.29,47.36l-10.36-23.75-10.86,23.75h21.22Z"/>
      <path class="st1" d="M361.68,14.79l-8.55,5.07c-1.6-2.77-3.12-4.58-4.57-5.43-1.51-.97-3.45-1.45-5.84-1.45-2.93,0-5.35.83-7.28,2.49-1.93,1.63-2.9,3.68-2.9,6.15,0,3.41,2.53,6.15,7.6,8.23l6.97,2.85c5.67,2.29,9.82,5.09,12.44,8.39,2.62,3.3,3.94,7.35,3.94,12.15,0,6.42-2.14,11.73-6.42,15.92-4.31,4.22-9.67,6.33-16.06,6.33-6.06,0-11.07-1.79-15.02-5.38-3.89-3.59-6.32-8.64-7.28-15.15l10.68-2.35c.48,4.1,1.33,6.94,2.53,8.5,2.17,3.02,5.34,4.52,9.5,4.52,3.29,0,6.02-1.1,8.19-3.3,2.17-2.2,3.26-4.99,3.26-8.37,0-1.36-.19-2.6-.57-3.73-.38-1.13-.97-2.17-1.76-3.12-.8-.95-1.83-1.84-3.1-2.67-1.27-.83-2.78-1.62-4.52-2.37l-6.74-2.8c-9.56-4.04-14.34-9.95-14.34-17.73,0-5.25,2.01-9.64,6.02-13.16,4.01-3.56,9-5.34,14.98-5.34,8.05,0,14.34,3.92,18.87,11.76Z"/>
      <path class="st1" d="M386.75,31.71h30.13V4.39h10.54v69.85h-10.54v-32.62h-30.13v32.62h-10.54V4.39h10.54v27.32Z"/>
      <path class="st1" d="M454.7,4.39v69.85h-10.54V4.39h10.54Z"/>
      <path class="st1" d="M467.42,69.17c0-1.69.62-3.15,1.86-4.39,1.24-1.24,2.71-1.85,4.43-1.85s3.2.62,4.43,1.85c1.24,1.24,1.86,2.71,1.86,4.43s-.62,3.24-1.86,4.48c-1.21,1.21-2.68,1.81-4.43,1.81s-3.27-.6-4.48-1.81c-1.21-1.21-1.81-2.71-1.81-4.52Z"/>
    </g>
  </g>
</svg>